<svg width="538" height="87" viewBox="0 0 538 87" fill="none" xmlns="http://www.w3.org/2000/svg">
<path d="M16.2695 64.1021C16.1477 63.2342 16.1477 62.3086 16.2695 61.325C19.3145 61.0357 21.4765 60.7754 22.7554 60.544C24.0343 60.2547 24.8261 59.6761 25.1306 58.8083C25.4351 57.9404 25.5873 56.4651 25.5873 54.3823V6.99848H19.01C15.7823 6.99848 13.2245 7.4324 11.3365 8.30023C9.5095 9.11021 8.01743 10.3541 6.86032 12.0319C5.7641 13.7097 4.66789 15.8504 3.57167 18.4539C2.59726 18.5696 1.62285 18.5696 0.648438 18.4539C1.01384 15.6768 1.3488 13.0155 1.6533 10.4698C2.01871 7.92417 2.32321 5.4653 2.56681 3.09322C6.52536 3.32464 10.9102 3.46928 15.7214 3.52714C20.5325 3.52714 25.5264 3.52714 30.7028 3.52714C35.9402 3.52714 40.9645 3.52714 45.7757 3.52714C50.6478 3.46928 55.0326 3.32464 58.9303 3.09322C59.1739 5.40745 59.4175 7.86632 59.6611 10.4698C59.9047 13.0155 60.2092 15.6768 60.5746 18.4539C59.5393 18.5696 58.5344 18.5696 57.56 18.4539C56.4029 15.7925 55.2458 13.623 54.0887 11.9451C52.9315 10.2673 51.4395 9.02343 49.6125 8.21345C47.8463 7.40347 45.3494 6.99848 42.1217 6.99848H35.6357V53.2541C35.6357 55.0477 35.6966 56.4651 35.8184 57.5065C35.9402 58.5479 36.2752 59.3 36.8233 59.7629C37.4323 60.2257 38.3762 60.5729 39.6552 60.8043C40.9341 60.9779 42.7002 61.1514 44.9535 61.325C45.1362 62.2507 45.1362 63.1764 44.9535 64.1021C43.6746 64.1021 42.1217 64.0731 40.2946 64.0153C38.5285 64.0153 36.7624 64.0153 34.9963 64.0153C33.2301 63.9574 31.7381 63.9285 30.52 63.9285C29.3629 63.9285 27.9015 63.9574 26.1354 64.0153C24.4302 64.0153 22.6641 64.0153 20.8371 64.0153C19.0709 64.0731 17.5484 64.1021 16.2695 64.1021ZM58.6669 64.1021C58.4842 63.1764 58.4842 62.2796 58.6669 61.4118C60.7375 61.2961 62.26 61.1225 63.2344 60.8911C64.2089 60.6018 64.8483 60.0232 65.1528 59.1554C65.4573 58.2876 65.6096 56.899 65.6096 54.9898V35.5503C65.6096 33.2939 65.4878 31.6161 65.2442 30.5168C65.0615 29.4176 64.4829 28.6654 63.5085 28.2605C62.595 27.7976 61.0116 27.4215 58.7582 27.1323C58.5755 26.3223 58.5755 25.5702 58.7582 24.8759C61.1943 24.4131 63.5694 23.8924 65.8836 23.3138C68.1979 22.6774 70.6339 21.8674 73.1917 20.8839L74.7447 21.4046V29.0415C79.0077 23.8923 83.3621 21.3178 87.8079 21.3178C89.9394 21.3178 91.5229 21.8674 92.5582 22.9667C93.5935 24.0081 94.1111 25.1941 94.1111 26.5248C94.1111 28.0869 93.563 29.3019 92.4668 30.1697C91.3706 30.9797 90.1221 31.3847 88.7214 31.3847C87.5643 31.3847 86.4072 31.0954 85.2501 30.5168C84.1539 29.9383 83.3317 29.0415 82.7836 27.8265C80.713 27.8265 78.8555 28.6076 77.2112 30.1697C75.6278 31.6739 74.836 33.4385 74.836 35.4635V54.122C74.836 56.3783 74.9579 57.9983 75.2015 58.9818C75.506 59.9654 76.2368 60.6018 77.3939 60.8911C78.6119 61.1225 80.5607 61.2961 83.2404 61.4118C83.3622 62.2218 83.3622 63.1185 83.2404 64.1021C81.1697 64.1021 79.0382 64.0731 76.8458 64.0153C74.6533 63.9574 72.4 63.9285 70.0858 63.9285C67.8324 63.9285 65.8227 63.9574 64.0566 64.0153C62.3514 64.0731 60.5548 64.1021 58.6669 64.1021ZM118.973 64.1021C117.268 64.1021 115.502 64.0731 113.675 64.0153C111.848 63.9574 109.868 63.9285 107.737 63.9285C105.788 63.9285 103.809 63.9574 101.799 64.0153C99.8503 64.0731 97.9624 64.1021 96.1353 64.1021C95.9526 63.1764 95.9526 62.2796 96.1353 61.4118C98.206 61.2961 99.7285 61.1225 100.703 60.8911C101.677 60.6018 102.317 60.0232 102.621 59.1554C102.926 58.2876 103.078 56.899 103.078 54.9898V35.5503C103.078 33.2939 102.987 31.6161 102.804 30.5168C102.621 29.4176 102.043 28.6654 101.068 28.2605C100.155 27.7976 98.5409 27.4215 96.2267 27.1323C96.044 26.3223 96.044 25.5702 96.2267 24.8759C98.9063 24.4131 101.464 23.8345 103.9 23.1402C106.336 22.446 108.681 21.6938 110.934 20.8839L112.487 21.4046C112.426 23.1981 112.365 24.8759 112.304 26.438C112.304 28.0001 112.304 29.4754 112.304 30.864V54.122C112.304 56.3783 112.426 57.9983 112.67 58.9818C112.974 59.9654 113.583 60.6018 114.497 60.8911C115.471 61.1225 116.963 61.2961 118.973 61.4118C119.156 62.2796 119.156 63.1764 118.973 64.1021ZM100.703 6.13064C100.703 4.45283 101.312 3.03536 102.53 1.87825C103.809 0.721134 105.331 0.142578 107.097 0.142578C108.803 0.142578 110.264 0.721134 111.482 1.87825C112.761 3.03536 113.401 4.4239 113.401 6.04386C113.401 7.54811 112.792 8.93665 111.574 10.2095C110.356 11.4244 108.803 12.0319 106.915 12.0319C105.21 12.0319 103.748 11.4534 102.53 10.2963C101.312 9.13914 100.703 7.7506 100.703 6.13064ZM178.794 64.1021C178.612 63.1764 178.612 62.2796 178.794 61.4118C180.621 61.2961 181.992 61.1225 182.905 60.8911C183.819 60.6018 184.428 60.0232 184.732 59.1554C185.098 58.2876 185.28 56.899 185.28 54.9898V37.4595C185.28 34.046 184.732 31.4715 183.636 29.7358C182.601 28.0001 180.439 27.1323 177.15 27.1323C173.07 27.1323 169.598 28.5787 166.736 31.4714C166.858 32.3971 166.919 33.3807 166.919 34.4221V54.122C166.919 56.3783 167.041 57.9983 167.284 58.9818C167.589 59.9654 168.198 60.6018 169.111 60.8911C170.025 61.1225 171.425 61.2961 173.313 61.4118C173.435 62.2796 173.435 63.1764 173.313 64.1021C171.608 64.1021 169.903 64.0731 168.198 64.0153C166.493 63.9574 164.483 63.9285 162.169 63.9285C159.915 63.9285 157.936 63.9574 156.231 64.0153C154.586 64.0731 153.003 64.1021 151.48 64.1021C151.298 63.1764 151.298 62.2796 151.48 61.4118C153.247 61.2961 154.556 61.1225 155.409 60.8911C156.322 60.6018 156.931 60.0232 157.236 59.1554C157.54 58.2876 157.692 56.899 157.692 54.9898V37.4595C157.692 34.046 157.175 31.4715 156.139 29.7358C155.104 28.0001 152.912 27.1323 149.562 27.1323C145.725 27.1323 142.376 28.6076 139.513 31.5582V54.122C139.513 56.3783 139.635 57.9983 139.879 58.9818C140.183 59.9654 140.792 60.6018 141.706 60.8911C142.68 61.1225 144.142 61.2961 146.091 61.4118C146.213 62.2796 146.213 63.1764 146.091 64.1021C144.386 64.1021 142.619 64.0731 140.792 64.0153C139.026 63.9574 136.986 63.9285 134.672 63.9285C132.479 63.9285 130.5 63.9574 128.734 64.0153C126.968 64.0731 125.171 64.1021 123.344 64.1021C123.162 63.1764 123.162 62.2796 123.344 61.4118C125.415 61.2961 126.937 61.1225 127.912 60.8911C128.886 60.6018 129.526 60.0232 129.83 59.1554C130.135 58.2876 130.287 56.899 130.287 54.9898V35.5503C130.287 33.2939 130.165 31.6161 129.922 30.5168C129.739 29.4176 129.16 28.6654 128.186 28.2605C127.272 27.7976 125.689 27.4215 123.436 27.1323C123.253 26.3223 123.253 25.5702 123.436 24.8759C125.993 24.4131 128.46 23.8634 130.835 23.227C133.21 22.5906 135.555 21.8095 137.869 20.8839L139.422 21.4046V27.8265C144.355 23.4874 149.501 21.3178 154.86 21.3178C158.21 21.3178 160.737 21.9831 162.443 23.3138C164.148 24.6445 165.335 26.2934 166.005 28.2605C168.624 25.8884 171.304 24.1527 174.044 23.0534C176.785 21.8963 179.556 21.3178 182.357 21.3178C186.377 21.3178 189.391 22.446 191.401 24.7023C193.472 26.9587 194.507 30.1986 194.507 34.4221V54.122C194.507 56.3783 194.629 57.9983 194.872 58.9818C195.116 59.9654 195.694 60.6018 196.608 60.8911C197.521 61.1225 198.922 61.2961 200.81 61.4118C200.993 62.2796 200.993 63.1764 200.81 64.1021C199.105 64.1021 197.4 64.0731 195.694 64.0153C193.989 63.9574 192.01 63.9285 189.757 63.9285C187.442 63.9285 185.402 63.9574 183.636 64.0153C181.931 64.0731 180.317 64.1021 178.794 64.1021ZM209.441 50.3035C210.355 54.122 211.816 57.0437 213.826 59.0686C215.836 61.0357 218.424 62.0193 221.591 62.0193C223.966 62.0193 225.976 61.4986 227.62 60.4572C229.264 59.3579 230.087 57.6512 230.087 55.3369C230.087 53.6013 229.63 52.2127 228.716 51.1713C227.864 50.1299 226.646 49.2621 225.062 48.5678C223.54 47.8157 221.804 47.0636 219.855 46.3114C217.602 45.4436 215.47 44.5179 213.461 43.5344C211.512 42.493 209.898 41.2201 208.619 39.7159C207.401 38.1538 206.792 36.1578 206.792 33.7278C206.792 30.9508 207.553 28.6654 209.076 26.8719C210.659 25.0205 212.669 23.632 215.105 22.7063C217.602 21.7806 220.251 21.3178 223.053 21.3178C224.453 21.3178 225.854 21.4046 227.255 21.5781C228.655 21.7517 229.417 21.8385 229.539 21.8385C230.757 22.012 231.883 22.1278 232.919 22.1856C233.954 22.1856 234.502 22.1856 234.563 22.1856C234.624 22.1856 234.746 22.1856 234.928 22.1856C235.172 22.1856 235.476 22.1567 235.842 22.0988C235.842 23.9502 235.872 25.8305 235.933 27.7398C235.994 29.649 236.116 31.6739 236.299 33.8146C236.238 33.8146 236.116 33.8146 235.933 33.8146C235.385 33.8725 234.867 33.9303 234.38 33.9882C233.954 33.9882 233.528 33.9592 233.101 33.9014C232.31 30.6615 231.122 28.3183 229.539 26.8719C228.016 25.3677 225.854 24.6155 223.053 24.6155C220.556 24.6155 218.546 25.1362 217.023 26.1777C215.562 27.2191 214.831 28.6654 214.831 30.5168C214.831 32.0211 215.318 33.265 216.293 34.2485C217.267 35.1742 218.455 35.9553 219.855 36.5917C221.256 37.2281 222.596 37.7777 223.875 38.2406C226.25 39.1084 228.503 40.0919 230.635 41.1912C232.827 42.2326 234.593 43.5922 235.933 45.27C237.334 46.9479 238.034 49.2042 238.034 52.0392C238.034 55.0477 237.212 57.5355 235.568 59.5025C233.984 61.4118 231.944 62.8292 229.447 63.7549C226.95 64.6228 224.332 65.0567 221.591 65.0567C220.008 65.0567 218.424 64.941 216.841 64.7096C215.318 64.4781 214.496 64.3624 214.374 64.3624C214.252 64.3624 213.735 64.3046 212.821 64.1889C211.969 64.0731 210.994 63.9574 209.898 63.8417C208.863 63.726 207.949 63.6682 207.158 63.6682C207.158 61.8746 207.066 59.8786 206.883 57.6801C206.762 55.4816 206.609 53.0516 206.427 50.3903C206.548 50.3903 206.701 50.3903 206.883 50.3903C207.432 50.3324 207.888 50.3035 208.254 50.3035C208.68 50.2456 209.076 50.2456 209.441 50.3035ZM250.077 86.1451C248.433 86.1451 247.154 85.6823 246.241 84.7566C245.388 83.8887 244.962 82.8473 244.962 81.6324C244.962 80.0124 245.875 78.4214 247.702 76.8593C249.529 75.355 252.513 74.6029 256.655 74.6029C257.446 73.2722 258.208 71.8258 258.938 70.2637C259.73 68.7595 260.644 66.8791 261.679 64.6228C261.009 63.0028 260.156 60.92 259.121 58.3744C258.086 55.8287 256.898 53.0227 255.558 49.9563C254.279 46.8321 252.97 43.6212 251.63 40.3234C250.29 36.9677 248.981 33.7278 247.702 30.6036C246.971 28.7522 246.149 27.4794 245.236 26.7851C244.383 26.0909 242.708 25.628 240.211 25.3966C240.029 24.5866 240.029 23.6899 240.211 22.7063C241.978 22.7063 243.774 22.7352 245.601 22.7931C247.428 22.8509 249.316 22.8799 251.265 22.8799C253.031 22.8799 254.949 22.8509 257.02 22.7931C259.091 22.7352 260.857 22.7063 262.318 22.7063C262.44 23.5741 262.44 24.4709 262.318 25.3966C260.248 25.5123 258.786 25.7148 257.934 26.0041C257.142 26.2934 256.746 26.8719 256.746 27.7398C256.746 28.5497 257.05 29.7936 257.659 31.4714C259.243 35.5792 260.765 39.3688 262.227 42.8401C263.75 46.3114 265.272 49.8696 266.795 53.5145C268.743 49.291 270.449 45.5015 271.91 42.1458C273.433 38.7902 274.955 35.2899 276.478 31.645C277.148 29.9672 277.483 28.7233 277.483 27.9133C277.483 27.1033 277.026 26.5248 276.112 26.1777C275.199 25.8305 273.585 25.5702 271.271 25.3966C271.088 24.4709 271.088 23.5741 271.271 22.7063C272.793 22.7063 274.346 22.7352 275.93 22.7931C277.574 22.8509 279.31 22.8799 281.137 22.8799C282.355 22.8799 283.664 22.8509 285.065 22.7931C286.526 22.7352 287.836 22.7063 288.993 22.7063C289.176 23.5741 289.176 24.4709 288.993 25.3966C286.435 25.5702 284.699 26.1198 283.786 27.0455C282.872 27.9133 282.02 29.244 281.228 31.0375L265.607 65.6642C265.303 66.3584 264.754 67.5156 263.963 69.1355C263.171 70.8133 262.318 72.5201 261.405 74.2558C260.552 76.0493 259.821 77.5246 259.212 78.6817C257.69 81.5166 256.198 83.4548 254.736 84.4962C253.275 85.5955 251.722 86.1451 250.077 86.1451Z" fill="black"/>
<path d="M343.091 35H337.455C337.121 33.3788 336.538 31.9545 335.705 30.7273C334.886 29.5 333.886 28.4697 332.705 27.6364C331.538 26.7879 330.242 26.1515 328.818 25.7273C327.394 25.303 325.909 25.0909 324.364 25.0909C321.545 25.0909 318.992 25.803 316.705 27.2273C314.432 28.6515 312.621 30.75 311.273 33.5227C309.939 36.2955 309.273 39.697 309.273 43.7273C309.273 47.7576 309.939 51.1591 311.273 53.9318C312.621 56.7045 314.432 58.803 316.705 60.2273C318.992 61.6515 321.545 62.3636 324.364 62.3636C325.909 62.3636 327.394 62.1515 328.818 61.7273C330.242 61.303 331.538 60.6742 332.705 59.8409C333.886 58.9924 334.886 57.9545 335.705 56.7273C336.538 55.4848 337.121 54.0606 337.455 52.4545H343.091C342.667 54.8333 341.894 56.9621 340.773 58.8409C339.652 60.7197 338.258 62.3182 336.591 63.6364C334.924 64.9394 333.053 65.9318 330.977 66.6136C328.917 67.2955 326.712 67.6364 324.364 67.6364C320.394 67.6364 316.864 66.6667 313.773 64.7273C310.682 62.7879 308.25 60.0303 306.477 56.4545C304.705 52.8788 303.818 48.6364 303.818 43.7273C303.818 38.8182 304.705 34.5758 306.477 31C308.25 27.4242 310.682 24.6667 313.773 22.7273C316.864 20.7879 320.394 19.8182 324.364 19.8182C326.712 19.8182 328.917 20.1591 330.977 20.8409C333.053 21.5227 334.924 22.5227 336.591 23.8409C338.258 25.1439 339.652 26.7348 340.773 28.6136C341.894 30.4773 342.667 32.6061 343.091 35ZM361.744 67.8182C359.532 67.8182 357.525 67.4015 355.722 66.5682C353.919 65.7197 352.487 64.5 351.426 62.9091C350.366 61.303 349.835 59.3636 349.835 57.0909C349.835 55.0909 350.229 53.4697 351.017 52.2273C351.805 50.9697 352.858 49.9848 354.176 49.2727C355.494 48.5606 356.949 48.0303 358.54 47.6818C360.146 47.3182 361.759 47.0303 363.381 46.8182C365.502 46.5455 367.222 46.3409 368.54 46.2045C369.873 46.053 370.843 45.803 371.449 45.4545C372.07 45.1061 372.381 44.5 372.381 43.6364V43.4545C372.381 41.2121 371.767 39.4697 370.54 38.2273C369.328 36.9848 367.487 36.3636 365.017 36.3636C362.456 36.3636 360.449 36.9242 358.994 38.0455C357.54 39.1667 356.517 40.3636 355.926 41.6364L350.835 39.8182C351.744 37.697 352.956 36.0455 354.472 34.8636C356.002 33.6667 357.669 32.8333 359.472 32.3636C361.29 31.8788 363.078 31.6364 364.835 31.6364C365.956 31.6364 367.244 31.7727 368.699 32.0455C370.169 32.303 371.585 32.8409 372.949 33.6591C374.328 34.4773 375.472 35.7121 376.381 37.3636C377.29 39.0152 377.744 41.2273 377.744 44V67H372.381V62.2727H372.108C371.744 63.0303 371.138 63.8409 370.29 64.7045C369.441 65.5682 368.313 66.303 366.903 66.9091C365.494 67.5152 363.775 67.8182 361.744 67.8182ZM362.562 63C364.684 63 366.472 62.5833 367.926 61.75C369.396 60.9167 370.502 59.8409 371.244 58.5227C372.002 57.2045 372.381 55.8182 372.381 54.3636V49.4545C372.153 49.7273 371.653 49.9773 370.881 50.2045C370.123 50.4167 369.244 50.6061 368.244 50.7727C367.259 50.9242 366.297 51.0606 365.358 51.1818C364.434 51.2879 363.684 51.3788 363.108 51.4545C361.714 51.6364 360.411 51.9318 359.199 52.3409C358.002 52.7348 357.032 53.3333 356.29 54.1364C355.563 54.9242 355.199 56 355.199 57.3636C355.199 59.2273 355.888 60.6364 357.267 61.5909C358.661 62.5303 360.426 63 362.562 63ZM387.534 67V32.0909H392.716V37.3636H393.08C393.716 35.6364 394.867 34.2348 396.534 33.1591C398.201 32.0833 400.08 31.5455 402.17 31.5455C402.564 31.5455 403.057 31.553 403.648 31.5682C404.239 31.5833 404.686 31.6061 404.989 31.6364V37.0909C404.807 37.0455 404.39 36.9773 403.739 36.8864C403.102 36.7803 402.428 36.7273 401.716 36.7273C400.019 36.7273 398.504 37.0833 397.17 37.7955C395.852 38.4924 394.807 39.4621 394.034 40.7045C393.277 41.9318 392.898 43.3333 392.898 44.9091V67H387.534ZM424.92 67.7273C421.557 67.7273 418.655 66.9848 416.216 65.5C413.792 64 411.92 61.9091 410.602 59.2273C409.299 56.5303 408.648 53.3939 408.648 49.8182C408.648 46.2424 409.299 43.0909 410.602 40.3636C411.92 37.6212 413.754 35.4848 416.102 33.9545C418.466 32.4091 421.223 31.6364 424.375 31.6364C426.193 31.6364 427.989 31.9394 429.761 32.5455C431.534 33.1515 433.148 34.1364 434.602 35.5C436.057 36.8485 437.216 38.6364 438.08 40.8636C438.943 43.0909 439.375 45.8333 439.375 49.0909V51.3636H412.466V46.7273H433.92C433.92 44.7576 433.527 43 432.739 41.4545C431.966 39.9091 430.86 38.6894 429.42 37.7955C427.996 36.9015 426.314 36.4545 424.375 36.4545C422.239 36.4545 420.39 36.9848 418.83 38.0455C417.284 39.0909 416.095 40.4545 415.261 42.1364C414.428 43.8182 414.011 45.6212 414.011 47.5455V50.6364C414.011 53.2727 414.466 55.5076 415.375 57.3409C416.299 59.1591 417.58 60.5455 419.216 61.5C420.852 62.4394 422.754 62.9091 424.92 62.9091C426.33 62.9091 427.602 62.7121 428.739 62.3182C429.89 61.9091 430.883 61.303 431.716 60.5C432.549 59.6818 433.193 58.6667 433.648 57.4545L438.83 58.9091C438.284 60.6667 437.367 62.2121 436.08 63.5455C434.792 64.8636 433.201 65.8939 431.307 66.6364C429.413 67.3636 427.284 67.7273 424.92 67.7273ZM462.17 67.7273C458.807 67.7273 455.905 66.9848 453.466 65.5C451.042 64 449.17 61.9091 447.852 59.2273C446.549 56.5303 445.898 53.3939 445.898 49.8182C445.898 46.2424 446.549 43.0909 447.852 40.3636C449.17 37.6212 451.004 35.4848 453.352 33.9545C455.716 32.4091 458.473 31.6364 461.625 31.6364C463.443 31.6364 465.239 31.9394 467.011 32.5455C468.784 33.1515 470.398 34.1364 471.852 35.5C473.307 36.8485 474.466 38.6364 475.33 40.8636C476.193 43.0909 476.625 45.8333 476.625 49.0909V51.3636H449.716V46.7273H471.17C471.17 44.7576 470.777 43 469.989 41.4545C469.216 39.9091 468.11 38.6894 466.67 37.7955C465.246 36.9015 463.564 36.4545 461.625 36.4545C459.489 36.4545 457.64 36.9848 456.08 38.0455C454.534 39.0909 453.345 40.4545 452.511 42.1364C451.678 43.8182 451.261 45.6212 451.261 47.5455V50.6364C451.261 53.2727 451.716 55.5076 452.625 57.3409C453.549 59.1591 454.83 60.5455 456.466 61.5C458.102 62.4394 460.004 62.9091 462.17 62.9091C463.58 62.9091 464.852 62.7121 465.989 62.3182C467.14 61.9091 468.133 61.303 468.966 60.5C469.799 59.6818 470.443 58.6667 470.898 57.4545L476.08 58.9091C475.534 60.6667 474.617 62.2121 473.33 63.5455C472.042 64.8636 470.451 65.8939 468.557 66.6364C466.663 67.3636 464.534 67.7273 462.17 67.7273ZM484.784 67V32.0909H489.966V37.3636H490.33C490.966 35.6364 492.117 34.2348 493.784 33.1591C495.451 32.0833 497.33 31.5455 499.42 31.5455C499.814 31.5455 500.307 31.553 500.898 31.5682C501.489 31.5833 501.936 31.6061 502.239 31.6364V37.0909C502.057 37.0455 501.64 36.9773 500.989 36.8864C500.352 36.7803 499.678 36.7273 498.966 36.7273C497.269 36.7273 495.754 37.0833 494.42 37.7955C493.102 38.4924 492.057 39.4621 491.284 40.7045C490.527 41.9318 490.148 43.3333 490.148 44.9091V67H484.784ZM533.324 39.9091L528.506 41.2727C528.203 40.4697 527.756 39.6894 527.165 38.9318C526.589 38.1591 525.801 37.5227 524.801 37.0227C523.801 36.5227 522.521 36.2727 520.96 36.2727C518.824 36.2727 517.044 36.7652 515.619 37.75C514.21 38.7197 513.506 39.9545 513.506 41.4545C513.506 42.7879 513.991 43.8409 514.96 44.6136C515.93 45.3864 517.445 46.0303 519.506 46.5455L524.688 47.8182C527.809 48.5758 530.134 49.7348 531.665 51.2955C533.195 52.8409 533.96 54.8333 533.96 57.2727C533.96 59.2727 533.384 61.0606 532.233 62.6364C531.097 64.2121 529.506 65.4545 527.46 66.3636C525.415 67.2727 523.036 67.7273 520.324 67.7273C516.763 67.7273 513.816 66.9545 511.483 65.4091C509.15 63.8636 507.672 61.6061 507.051 58.6364L512.142 57.3636C512.627 59.2424 513.544 60.6515 514.892 61.5909C516.256 62.5303 518.036 63 520.233 63C522.733 63 524.718 62.4697 526.188 61.4091C527.672 60.3333 528.415 59.0455 528.415 57.5455C528.415 56.3333 527.991 55.3182 527.142 54.5C526.294 53.6667 524.991 53.0455 523.233 52.6364L517.415 51.2727C514.218 50.5152 511.869 49.3409 510.369 47.75C508.884 46.1439 508.142 44.1364 508.142 41.7273C508.142 39.7576 508.695 38.0152 509.801 36.5C510.922 34.9848 512.445 33.7955 514.369 32.9318C516.309 32.0682 518.506 31.6364 520.96 31.6364C524.415 31.6364 527.127 32.3939 529.097 33.9091C531.081 35.4242 532.491 37.4242 533.324 39.9091Z" fill="black"/>
</svg>
