<svg width="50" height="20" viewBox="0 0 50 20" fill="none" xmlns="http://www.w3.org/2000/svg">
<path d="M8.31123 13.012C8.29523 12.892 8.29523 12.764 8.31123 12.628C8.71123 12.588 8.99523 12.552 9.16323 12.52C9.33123 12.48 9.43523 12.4 9.47523 12.28C9.51523 12.16 9.53523 11.956 9.53523 11.668V5.116H8.67123C8.24723 5.116 7.91123 5.176 7.66323 5.296C7.42323 5.408 7.22723 5.58 7.07523 5.812C6.93123 6.044 6.78723 6.34 6.64323 6.7C6.51523 6.716 6.38723 6.716 6.25923 6.7C6.30723 6.316 6.35123 5.948 6.39123 5.596C6.43923 5.244 6.47923 4.904 6.51123 4.576C7.03123 4.608 7.60723 4.628 8.23923 4.636C8.87123 4.636 9.52723 4.636 10.2072 4.636C10.8952 4.636 11.5552 4.636 12.1872 4.636C12.8272 4.628 13.4032 4.608 13.9152 4.576C13.9472 4.896 13.9792 5.236 14.0112 5.596C14.0432 5.948 14.0832 6.316 14.1312 6.7C13.9952 6.716 13.8632 6.716 13.7352 6.7C13.5832 6.332 13.4312 6.032 13.2792 5.8C13.1272 5.568 12.9312 5.396 12.6912 5.284C12.4592 5.172 12.1312 5.116 11.7072 5.116H10.8552V11.512C10.8552 11.76 10.8632 11.956 10.8792 12.1C10.8952 12.244 10.9392 12.348 11.0112 12.412C11.0912 12.476 11.2152 12.524 11.3832 12.556C11.5512 12.58 11.7832 12.604 12.0792 12.628C12.1032 12.756 12.1032 12.884 12.0792 13.012C11.9112 13.012 11.7072 13.008 11.4672 13C11.2352 13 11.0032 13 10.7712 13C10.5392 12.992 10.3432 12.988 10.1832 12.988C10.0312 12.988 9.83923 12.992 9.60723 13C9.38323 13 9.15123 13 8.91123 13C8.67923 13.008 8.47923 13.012 8.31123 13.012ZM13.8806 13.012C13.8566 12.884 13.8566 12.76 13.8806 12.64C14.1526 12.624 14.3526 12.6 14.4806 12.568C14.6086 12.528 14.6926 12.448 14.7326 12.328C14.7726 12.208 14.7926 12.016 14.7926 11.752V9.064C14.7926 8.752 14.7766 8.52 14.7446 8.368C14.7206 8.216 14.6446 8.112 14.5166 8.056C14.3966 7.992 14.1886 7.94 13.8926 7.9C13.8686 7.788 13.8686 7.684 13.8926 7.588C14.2126 7.524 14.5246 7.452 14.8286 7.372C15.1326 7.284 15.4526 7.172 15.7886 7.036L15.9926 7.108V8.164C16.5526 7.452 17.1246 7.096 17.7086 7.096C17.9886 7.096 18.1966 7.172 18.3326 7.324C18.4686 7.468 18.5366 7.632 18.5366 7.816C18.5366 8.032 18.4646 8.2 18.3206 8.32C18.1766 8.432 18.0126 8.488 17.8286 8.488C17.6766 8.488 17.5246 8.448 17.3726 8.368C17.2286 8.288 17.1206 8.164 17.0486 7.996C16.7766 7.996 16.5326 8.104 16.3166 8.32C16.1086 8.528 16.0046 8.772 16.0046 9.052V11.632C16.0046 11.944 16.0206 12.168 16.0526 12.304C16.0926 12.44 16.1886 12.528 16.3406 12.568C16.5006 12.6 16.7566 12.624 17.1086 12.64C17.1246 12.752 17.1246 12.876 17.1086 13.012C16.8366 13.012 16.5566 13.008 16.2686 13C15.9806 12.992 15.6846 12.988 15.3806 12.988C15.0846 12.988 14.8206 12.992 14.5886 13C14.3646 13.008 14.1286 13.012 13.8806 13.012ZM21.8025 13.012C21.5785 13.012 21.3465 13.008 21.1065 13C20.8665 12.992 20.6065 12.988 20.3265 12.988C20.0705 12.988 19.8105 12.992 19.5465 13C19.2905 13.008 19.0425 13.012 18.8025 13.012C18.7785 12.884 18.7785 12.76 18.8025 12.64C19.0745 12.624 19.2745 12.6 19.4025 12.568C19.5305 12.528 19.6145 12.448 19.6545 12.328C19.6945 12.208 19.7145 12.016 19.7145 11.752V9.064C19.7145 8.752 19.7025 8.52 19.6785 8.368C19.6545 8.216 19.5785 8.112 19.4505 8.056C19.3305 7.992 19.1185 7.94 18.8145 7.9C18.7905 7.788 18.7905 7.684 18.8145 7.588C19.1665 7.524 19.5025 7.444 19.8225 7.348C20.1425 7.252 20.4505 7.148 20.7465 7.036L20.9505 7.108C20.9425 7.356 20.9345 7.588 20.9265 7.804C20.9265 8.02 20.9265 8.224 20.9265 8.416V11.632C20.9265 11.944 20.9425 12.168 20.9745 12.304C21.0145 12.44 21.0945 12.528 21.2145 12.568C21.3425 12.6 21.5385 12.624 21.8025 12.64C21.8265 12.76 21.8265 12.884 21.8025 13.012ZM19.4025 4.996C19.4025 4.764 19.4825 4.568 19.6425 4.408C19.8105 4.248 20.0105 4.168 20.2425 4.168C20.4665 4.168 20.6585 4.248 20.8185 4.408C20.9865 4.568 21.0705 4.76 21.0705 4.984C21.0705 5.192 20.9905 5.384 20.8305 5.56C20.6705 5.728 20.4665 5.812 20.2185 5.812C19.9945 5.812 19.8025 5.732 19.6425 5.572C19.4825 5.412 19.4025 5.22 19.4025 4.996ZM29.6607 13.012C29.6367 12.884 29.6367 12.76 29.6607 12.64C29.9007 12.624 30.0807 12.6 30.2007 12.568C30.3207 12.528 30.4007 12.448 30.4407 12.328C30.4887 12.208 30.5127 12.016 30.5127 11.752V9.328C30.5127 8.856 30.4407 8.5 30.2967 8.26C30.1607 8.02 29.8767 7.9 29.4447 7.9C28.9087 7.9 28.4527 8.1 28.0767 8.5C28.0927 8.628 28.1007 8.764 28.1007 8.908V11.632C28.1007 11.944 28.1167 12.168 28.1487 12.304C28.1887 12.44 28.2687 12.528 28.3887 12.568C28.5087 12.6 28.6927 12.624 28.9407 12.64C28.9567 12.76 28.9567 12.884 28.9407 13.012C28.7167 13.012 28.4927 13.008 28.2687 13C28.0447 12.992 27.7807 12.988 27.4767 12.988C27.1807 12.988 26.9207 12.992 26.6967 13C26.4807 13.008 26.2727 13.012 26.0727 13.012C26.0487 12.884 26.0487 12.76 26.0727 12.64C26.3047 12.624 26.4767 12.6 26.5887 12.568C26.7087 12.528 26.7887 12.448 26.8287 12.328C26.8687 12.208 26.8887 12.016 26.8887 11.752V9.328C26.8887 8.856 26.8207 8.5 26.6847 8.26C26.5487 8.02 26.2607 7.9 25.8207 7.9C25.3167 7.9 24.8767 8.104 24.5007 8.512V11.632C24.5007 11.944 24.5167 12.168 24.5487 12.304C24.5887 12.44 24.6687 12.528 24.7887 12.568C24.9167 12.6 25.1087 12.624 25.3647 12.64C25.3807 12.76 25.3807 12.884 25.3647 13.012C25.1407 13.012 24.9087 13.008 24.6687 13C24.4367 12.992 24.1687 12.988 23.8647 12.988C23.5767 12.988 23.3167 12.992 23.0847 13C22.8527 13.008 22.6167 13.012 22.3767 13.012C22.3527 12.884 22.3527 12.76 22.3767 12.64C22.6487 12.624 22.8487 12.6 22.9767 12.568C23.1047 12.528 23.1887 12.448 23.2287 12.328C23.2687 12.208 23.2887 12.016 23.2887 11.752V9.064C23.2887 8.752 23.2727 8.52 23.2407 8.368C23.2167 8.216 23.1407 8.112 23.0127 8.056C22.8927 7.992 22.6847 7.94 22.3887 7.9C22.3647 7.788 22.3647 7.684 22.3887 7.588C22.7247 7.524 23.0487 7.448 23.3607 7.36C23.6727 7.272 23.9807 7.164 24.2847 7.036L24.4887 7.108V7.996C25.1367 7.396 25.8127 7.096 26.5167 7.096C26.9567 7.096 27.2887 7.188 27.5127 7.372C27.7367 7.556 27.8927 7.784 27.9807 8.056C28.3247 7.728 28.6767 7.488 29.0367 7.336C29.3967 7.176 29.7607 7.096 30.1287 7.096C30.6567 7.096 31.0527 7.252 31.3167 7.564C31.5887 7.876 31.7247 8.324 31.7247 8.908V11.632C31.7247 11.944 31.7407 12.168 31.7727 12.304C31.8047 12.44 31.8807 12.528 32.0007 12.568C32.1207 12.6 32.3047 12.624 32.5527 12.64C32.5767 12.76 32.5767 12.884 32.5527 13.012C32.3287 13.012 32.1047 13.008 31.8807 13C31.6567 12.992 31.3967 12.988 31.1007 12.988C30.7967 12.988 30.5287 12.992 30.2967 13C30.0727 13.008 29.8607 13.012 29.6607 13.012ZM33.6865 11.104C33.8065 11.632 33.9985 12.036 34.2625 12.316C34.5265 12.588 34.8665 12.724 35.2825 12.724C35.5945 12.724 35.8585 12.652 36.0745 12.508C36.2905 12.356 36.3985 12.12 36.3985 11.8C36.3985 11.56 36.3385 11.368 36.2185 11.224C36.1065 11.08 35.9465 10.96 35.7385 10.864C35.5385 10.76 35.3105 10.656 35.0545 10.552C34.7585 10.432 34.4785 10.304 34.2145 10.168C33.9585 10.024 33.7465 9.848 33.5785 9.64C33.4185 9.424 33.3385 9.148 33.3385 8.812C33.3385 8.428 33.4385 8.112 33.6385 7.864C33.8465 7.608 34.1105 7.416 34.4305 7.288C34.7585 7.16 35.1065 7.096 35.4745 7.096C35.6585 7.096 35.8425 7.108 36.0265 7.132C36.2105 7.156 36.3105 7.168 36.3265 7.168C36.4865 7.192 36.6345 7.208 36.7705 7.216C36.9065 7.216 36.9785 7.216 36.9865 7.216C36.9945 7.216 37.0105 7.216 37.0345 7.216C37.0665 7.216 37.1065 7.212 37.1545 7.204C37.1545 7.46 37.1585 7.72 37.1665 7.984C37.1745 8.248 37.1905 8.528 37.2145 8.824C37.2065 8.824 37.1905 8.824 37.1665 8.824C37.0945 8.832 37.0265 8.84 36.9625 8.848C36.9065 8.848 36.8505 8.844 36.7945 8.836C36.6905 8.388 36.5345 8.064 36.3265 7.864C36.1265 7.656 35.8425 7.552 35.4745 7.552C35.1465 7.552 34.8825 7.624 34.6825 7.768C34.4905 7.912 34.3945 8.112 34.3945 8.368C34.3945 8.576 34.4585 8.748 34.5865 8.884C34.7145 9.012 34.8705 9.12 35.0545 9.208C35.2385 9.296 35.4145 9.372 35.5825 9.436C35.8945 9.556 36.1905 9.692 36.4705 9.844C36.7585 9.988 36.9905 10.176 37.1665 10.408C37.3505 10.64 37.4425 10.952 37.4425 11.344C37.4425 11.76 37.3345 12.104 37.1185 12.376C36.9105 12.64 36.6425 12.836 36.3145 12.964C35.9865 13.084 35.6425 13.144 35.2825 13.144C35.0745 13.144 34.8665 13.128 34.6585 13.096C34.4585 13.064 34.3505 13.048 34.3345 13.048C34.3185 13.048 34.2505 13.04 34.1305 13.024C34.0185 13.008 33.8905 12.992 33.7465 12.976C33.6105 12.96 33.4905 12.952 33.3865 12.952C33.3865 12.704 33.3745 12.428 33.3505 12.124C33.3345 11.82 33.3145 11.484 33.2905 11.116C33.3065 11.116 33.3265 11.116 33.3505 11.116C33.4225 11.108 33.4825 11.104 33.5305 11.104C33.5865 11.096 33.6385 11.096 33.6865 11.104ZM39.0245 16.06C38.8085 16.06 38.6405 15.996 38.5205 15.868C38.4085 15.748 38.3525 15.604 38.3525 15.436C38.3525 15.212 38.4725 14.992 38.7125 14.776C38.9525 14.568 39.3445 14.464 39.8885 14.464C39.9925 14.28 40.0925 14.08 40.1885 13.864C40.2925 13.656 40.4125 13.396 40.5485 13.084C40.4605 12.86 40.3485 12.572 40.2125 12.22C40.0765 11.868 39.9205 11.48 39.7445 11.056C39.5765 10.624 39.4045 10.18 39.2285 9.724C39.0525 9.26 38.8805 8.812 38.7125 8.38C38.6165 8.124 38.5085 7.948 38.3885 7.852C38.2765 7.756 38.0565 7.692 37.7285 7.66C37.7045 7.548 37.7045 7.424 37.7285 7.288C37.9605 7.288 38.1965 7.292 38.4365 7.3C38.6765 7.308 38.9245 7.312 39.1805 7.312C39.4125 7.312 39.6645 7.308 39.9365 7.3C40.2085 7.292 40.4405 7.288 40.6325 7.288C40.6485 7.408 40.6485 7.532 40.6325 7.66C40.3605 7.676 40.1685 7.704 40.0565 7.744C39.9525 7.784 39.9005 7.864 39.9005 7.984C39.9005 8.096 39.9405 8.268 40.0205 8.5C40.2285 9.068 40.4285 9.592 40.6205 10.072C40.8205 10.552 41.0205 11.044 41.2205 11.548C41.4765 10.964 41.7005 10.44 41.8925 9.976C42.0925 9.512 42.2925 9.028 42.4925 8.524C42.5805 8.292 42.6245 8.12 42.6245 8.008C42.6245 7.896 42.5645 7.816 42.4445 7.768C42.3245 7.72 42.1125 7.684 41.8085 7.66C41.7845 7.532 41.7845 7.408 41.8085 7.288C42.0085 7.288 42.2125 7.292 42.4205 7.3C42.6365 7.308 42.8645 7.312 43.1045 7.312C43.2645 7.312 43.4365 7.308 43.6205 7.3C43.8125 7.292 43.9845 7.288 44.1365 7.288C44.1605 7.408 44.1605 7.532 44.1365 7.66C43.8005 7.684 43.5725 7.76 43.4525 7.888C43.3325 8.008 43.2205 8.192 43.1165 8.44L41.0645 13.228C41.0245 13.324 40.9525 13.484 40.8485 13.708C40.7445 13.94 40.6325 14.176 40.5125 14.416C40.4005 14.664 40.3045 14.868 40.2245 15.028C40.0245 15.42 39.8285 15.688 39.6365 15.832C39.4445 15.984 39.2405 16.06 39.0245 16.06Z" fill="black"/>
</svg>
