<svg width="528" height="62" viewBox="0 0 528 62" fill="none" xmlns="http://www.w3.org/2000/svg">
<path d="M23.944 49.512C20.5307 49.512 17.352 48.936 14.408 47.784C11.5067 46.632 8.98933 45.032 6.856 42.984C4.72267 40.8933 3.05867 38.4613 1.864 35.688C0.669333 32.9147 0.072 29.8853 0.072 26.6C0.072 23.3147 0.669333 20.2853 1.864 17.512C3.05867 14.7387 4.72267 12.328 6.856 10.28C8.98933 8.18933 11.5067 6.568 14.408 5.416C17.3093 4.264 20.488 3.688 23.944 3.688C27.3573 3.688 30.4933 4.264 33.352 5.416C36.2533 6.52533 38.7707 8.12533 40.904 10.216C43.08 12.264 44.744 14.6747 45.896 17.448C47.0907 20.2213 47.688 23.272 47.688 26.6C47.688 29.928 47.0907 32.9787 45.896 35.752C44.744 38.5253 43.08 40.9573 40.904 43.048C38.7707 45.096 36.2533 46.696 33.352 47.848C30.4933 48.9573 27.3573 49.512 23.944 49.512ZM23.944 43.816C26.4187 43.816 28.7013 43.3893 30.792 42.536C32.9253 41.6827 34.76 40.488 36.296 38.952C37.8747 37.3733 39.0907 35.5387 39.944 33.448C40.84 31.3573 41.288 29.0747 41.288 26.6C41.288 24.1253 40.84 21.8427 39.944 19.752C39.0907 17.6613 37.8747 15.848 36.296 14.312C34.76 12.7333 32.9253 11.5173 30.792 10.664C28.7013 9.81067 26.4187 9.384 23.944 9.384C21.4267 9.384 19.1013 9.81067 16.968 10.664C14.8773 11.5173 13.0427 12.7333 11.464 14.312C9.88533 15.848 8.648 17.6613 7.752 19.752C6.89867 21.8427 6.472 24.1253 6.472 26.6C6.472 29.0747 6.89867 31.3573 7.752 33.448C8.648 35.5387 9.88533 37.3733 11.464 38.952C13.0427 40.488 14.8773 41.6827 16.968 42.536C19.1013 43.3893 21.4267 43.816 23.944 43.816ZM54.014 49V1.512H60.158V49H54.014ZM84.433 49.384C80.8063 49.384 77.6063 48.6373 74.833 47.144C72.1023 45.6507 69.969 43.6027 68.433 41C66.9397 38.3973 66.193 35.4107 66.193 32.04C66.193 28.6693 66.9183 25.6827 68.369 23.08C69.8623 20.4773 71.889 18.4507 74.449 17C77.0517 15.5067 79.9743 14.76 83.217 14.76C86.5023 14.76 89.4037 15.4853 91.921 16.936C94.4383 18.3867 96.401 20.4347 97.809 23.08C99.2597 25.6827 99.985 28.7333 99.985 32.232C99.985 32.488 99.9637 32.7867 99.921 33.128C99.921 33.4693 99.8997 33.7893 99.857 34.088H70.993V29.672H96.657L94.161 31.208C94.2037 29.032 93.7557 27.0907 92.817 25.384C91.8783 23.6773 90.577 22.3547 88.913 21.416C87.2917 20.4347 85.393 19.944 83.217 19.944C81.0837 19.944 79.185 20.4347 77.521 21.416C75.857 22.3547 74.5557 23.6987 73.617 25.448C72.6783 27.1547 72.209 29.1173 72.209 31.336V32.36C72.209 34.6213 72.721 36.648 73.745 38.44C74.8117 40.1893 76.2837 41.5547 78.161 42.536C80.0383 43.5173 82.193 44.008 84.625 44.008C86.6303 44.008 88.4437 43.6667 90.065 42.984C91.729 42.3013 93.1797 41.2773 94.417 39.912L97.809 43.88C96.273 45.672 94.353 47.0373 92.049 47.976C89.7877 48.9147 87.249 49.384 84.433 49.384ZM110.949 40.808L111.076 32.936L130.597 15.08H138.021L123.045 29.8L119.717 32.616L110.949 40.808ZM105.957 49V1.512H112.101V49H105.957ZM131.877 49L118.565 32.488L122.533 27.56L139.429 49H131.877ZM151.499 49.384C148.683 49.384 145.995 49 143.435 48.232C140.918 47.464 138.934 46.5253 137.483 45.416L140.043 40.552C141.494 41.5333 143.286 42.3653 145.419 43.048C147.553 43.7307 149.729 44.072 151.947 44.072C154.806 44.072 156.854 43.6667 158.091 42.856C159.371 42.0453 160.011 40.9147 160.011 39.464C160.011 38.3973 159.627 37.5653 158.859 36.968C158.091 36.3707 157.067 35.9227 155.787 35.624C154.55 35.3253 153.163 35.0693 151.627 34.856C150.091 34.6 148.555 34.3013 147.019 33.96C145.483 33.576 144.075 33.064 142.795 32.424C141.515 31.7413 140.491 30.824 139.723 29.672C138.955 28.4773 138.571 26.8987 138.571 24.936C138.571 22.888 139.147 21.096 140.299 19.56C141.451 18.024 143.073 16.8507 145.163 16.04C147.297 15.1867 149.814 14.76 152.715 14.76C154.934 14.76 157.174 15.0373 159.435 15.592C161.739 16.104 163.617 16.8507 165.067 17.832L162.443 22.696C160.907 21.672 159.307 20.968 157.643 20.584C155.979 20.2 154.315 20.008 152.651 20.008C149.963 20.008 147.958 20.456 146.635 21.352C145.313 22.2053 144.651 23.3147 144.651 24.68C144.651 25.832 145.035 26.728 145.803 27.368C146.614 27.9653 147.638 28.4347 148.875 28.776C150.155 29.1173 151.563 29.416 153.099 29.672C154.635 29.8853 156.171 30.184 157.707 30.568C159.243 30.9093 160.63 31.4 161.867 32.04C163.147 32.68 164.171 33.576 164.939 34.728C165.75 35.88 166.155 37.416 166.155 39.336C166.155 41.384 165.558 43.1547 164.363 44.648C163.169 46.1413 161.483 47.3147 159.307 48.168C157.131 48.9787 154.529 49.384 151.499 49.384ZM171.274 49V15.08H177.418V49H171.274ZM174.346 8.552C173.151 8.552 172.149 8.168 171.338 7.4C170.57 6.632 170.186 5.69333 170.186 4.584C170.186 3.432 170.57 2.472 171.338 1.704C172.149 0.935998 173.151 0.551998 174.346 0.551998C175.541 0.551998 176.522 0.935998 177.29 1.704C178.101 2.42933 178.506 3.34666 178.506 4.456C178.506 5.608 178.122 6.58933 177.354 7.4C176.586 8.168 175.583 8.552 174.346 8.552ZM186.589 49V15.08H192.733V49H186.589ZM189.661 8.552C188.466 8.552 187.464 8.168 186.653 7.4C185.885 6.632 185.501 5.69333 185.501 4.584C185.501 3.432 185.885 2.472 186.653 1.704C187.464 0.935998 188.466 0.551998 189.661 0.551998C190.856 0.551998 191.837 0.935998 192.605 1.704C193.416 2.42933 193.821 3.34666 193.821 4.456C193.821 5.608 193.437 6.58933 192.669 7.4C191.901 8.168 190.898 8.552 189.661 8.552ZM217.428 49V4.2H234.9C238.825 4.2 242.174 4.81866 244.948 6.056C247.721 7.29333 249.854 9.08533 251.348 11.432C252.841 13.7787 253.588 16.5733 253.588 19.816C253.588 23.0587 252.841 25.8533 251.348 28.2C249.854 30.504 247.721 32.296 244.948 33.576C242.174 34.8133 238.825 35.432 234.9 35.432H220.948L223.828 32.424V49H217.428ZM223.828 33.064L220.948 29.864H234.708C238.804 29.864 241.897 28.9893 243.988 27.24C246.121 25.4907 247.188 23.016 247.188 19.816C247.188 16.616 246.121 14.1413 243.988 12.392C241.897 10.6427 238.804 9.768 234.708 9.768H220.948L223.828 6.568V33.064ZM261.193 61.8C259.572 61.8 257.993 61.5227 256.457 60.968C254.921 60.456 253.599 59.688 252.489 58.664L255.113 54.056C255.967 54.8667 256.905 55.4853 257.929 55.912C258.953 56.3387 260.041 56.552 261.193 56.552C262.687 56.552 263.924 56.168 264.905 55.4C265.887 54.632 266.804 53.2667 267.657 51.304L269.769 46.632L270.409 45.864L283.721 15.08H289.737L273.289 52.392C272.308 54.7813 271.199 56.6587 269.961 58.024C268.767 59.3893 267.444 60.3493 265.993 60.904C264.543 61.5013 262.943 61.8 261.193 61.8ZM269.257 50.088L253.769 15.08H260.169L273.353 45.288L269.257 50.088ZM292.911 49V1.512H299.055V49H292.911ZM309.698 61.8C308.077 61.8 306.498 61.5227 304.962 60.968C303.426 60.456 302.104 59.688 300.994 58.664L303.618 54.056C304.472 54.8667 305.41 55.4853 306.434 55.912C307.458 56.3387 308.546 56.552 309.698 56.552C311.192 56.552 312.429 56.168 313.41 55.4C314.392 54.632 315.309 53.2667 316.162 51.304L318.274 46.632L318.914 45.864L332.226 15.08H338.242L321.794 52.392C320.813 54.7813 319.704 56.6587 318.466 58.024C317.272 59.3893 315.949 60.3493 314.498 60.904C313.048 61.5013 311.448 61.8 309.698 61.8ZM317.762 50.088L302.274 15.08H308.674L321.858 45.288L317.762 50.088ZM359.4 49.384C356.584 49.384 354.003 48.744 351.656 47.464C349.352 46.1413 347.496 44.2 346.088 41.64C344.723 39.08 344.04 35.88 344.04 32.04C344.04 28.2 344.702 25 346.024 22.44C347.39 19.88 349.224 17.96 351.528 16.68C353.875 15.4 356.499 14.76 359.4 14.76C362.728 14.76 365.673 15.4853 368.233 16.936C370.793 18.3867 372.819 20.4133 374.312 23.016C375.806 25.576 376.553 28.584 376.553 32.04C376.553 35.496 375.806 38.5253 374.312 41.128C372.819 43.7307 370.793 45.7573 368.233 47.208C365.673 48.6587 362.728 49.384 359.4 49.384ZM341.416 61.416V15.08H347.304V24.232L346.92 32.104L347.56 39.976V61.416H341.416ZM358.889 44.008C361.065 44.008 363.006 43.5173 364.712 42.536C366.462 41.5547 367.827 40.168 368.809 38.376C369.833 36.5413 370.345 34.4293 370.345 32.04C370.345 29.608 369.833 27.5173 368.809 25.768C367.827 23.976 366.462 22.5893 364.712 21.608C363.006 20.6267 361.065 20.136 358.889 20.136C356.755 20.136 354.814 20.6267 353.064 21.608C351.358 22.5893 349.992 23.976 348.968 25.768C347.987 27.5173 347.496 29.608 347.496 32.04C347.496 34.4293 347.987 36.5413 348.968 38.376C349.992 40.168 351.358 41.5547 353.064 42.536C354.814 43.5173 356.755 44.008 358.889 44.008ZM397.586 49.384C393.959 49.384 390.759 48.6373 387.986 47.144C385.255 45.6507 383.122 43.6027 381.586 41C380.092 38.3973 379.346 35.4107 379.346 32.04C379.346 28.6693 380.071 25.6827 381.522 23.08C383.015 20.4773 385.042 18.4507 387.602 17C390.204 15.5067 393.127 14.76 396.37 14.76C399.655 14.76 402.556 15.4853 405.074 16.936C407.591 18.3867 409.554 20.4347 410.962 23.08C412.412 25.6827 413.138 28.7333 413.138 32.232C413.138 32.488 413.116 32.7867 413.074 33.128C413.074 33.4693 413.052 33.7893 413.01 34.088H384.146V29.672H409.81L407.314 31.208C407.356 29.032 406.908 27.0907 405.97 25.384C405.031 23.6773 403.73 22.3547 402.066 21.416C400.444 20.4347 398.546 19.944 396.37 19.944C394.236 19.944 392.338 20.4347 390.674 21.416C389.01 22.3547 387.708 23.6987 386.77 25.448C385.831 27.1547 385.362 29.1173 385.362 31.336V32.36C385.362 34.6213 385.874 36.648 386.898 38.44C387.964 40.1893 389.436 41.5547 391.314 42.536C393.191 43.5173 395.346 44.008 397.778 44.008C399.783 44.008 401.596 43.6667 403.218 42.984C404.882 42.3013 406.332 41.2773 407.57 39.912L410.962 43.88C409.426 45.672 407.506 47.0373 405.202 47.976C402.94 48.9147 400.402 49.384 397.586 49.384ZM437.221 14.76C439.994 14.76 442.426 15.2933 444.517 16.36C446.65 17.4267 448.314 19.048 449.509 21.224C450.704 23.4 451.301 26.152 451.301 29.48V49H445.157V30.184C445.157 26.8987 444.346 24.424 442.725 22.76C441.146 21.096 438.906 20.264 436.005 20.264C433.829 20.264 431.93 20.6907 430.309 21.544C428.688 22.3973 427.429 23.656 426.533 25.32C425.68 26.984 425.253 29.0533 425.253 31.528V49H419.109V15.08H424.997V24.232L424.037 21.8C425.146 19.5813 426.853 17.8533 429.157 16.616C431.461 15.3787 434.149 14.76 437.221 14.76ZM465.104 40.808L465.232 32.936L484.752 15.08H492.176L477.2 29.8L473.872 32.616L465.104 40.808ZM460.112 49V1.512H466.256V49H460.112ZM486.032 49L472.72 32.488L476.688 27.56L493.584 49H486.032ZM510.142 49.384C506.729 49.384 503.699 48.6373 501.054 47.144C498.409 45.6507 496.318 43.6027 494.782 41C493.246 38.3547 492.478 35.368 492.478 32.04C492.478 28.6693 493.246 25.6827 494.782 23.08C496.318 20.4773 498.409 18.4507 501.054 17C503.699 15.5067 506.729 14.76 510.142 14.76C513.513 14.76 516.521 15.5067 519.166 17C521.854 18.4507 523.945 20.4773 525.438 23.08C526.974 25.64 527.742 28.6267 527.742 32.04C527.742 35.4107 526.974 38.3973 525.438 41C523.945 43.6027 521.854 45.6507 519.166 47.144C516.521 48.6373 513.513 49.384 510.142 49.384ZM510.142 44.008C512.318 44.008 514.259 43.5173 515.966 42.536C517.715 41.5547 519.081 40.168 520.062 38.376C521.043 36.5413 521.534 34.4293 521.534 32.04C521.534 29.608 521.043 27.5173 520.062 25.768C519.081 23.976 517.715 22.5893 515.966 21.608C514.259 20.6267 512.318 20.136 510.142 20.136C507.966 20.136 506.025 20.6267 504.318 21.608C502.611 22.5893 501.246 23.976 500.222 25.768C499.198 27.5173 498.686 29.608 498.686 32.04C498.686 34.4293 499.198 36.5413 500.222 38.376C501.246 40.168 502.611 41.5547 504.318 42.536C506.025 43.5173 507.966 44.008 510.142 44.008Z" fill="black"/>
</svg>
