<?xml version="1.0" standalone="no"?>
<!DOCTYPE svg PUBLIC "-//W3C//DTD SVG 20010904//EN"
 "http://www.w3.org/TR/2001/REC-SVG-20010904/DTD/svg10.dtd">
<svg version="1.0" xmlns="http://www.w3.org/2000/svg"
 width="216.000000pt" height="216.000000pt" viewBox="0 0 216.000000 216.000000"
 preserveAspectRatio="xMidYMid meet">
<metadata>
Created by potrace 1.14, written by Peter Selinger 2001-2017
</metadata>
<g transform="translate(0.000000,216.000000) scale(0.100000,-0.100000)"
fill="#000000" stroke="none">
<path d="M345 1919 c-4 -12 -13 -82 -40 -304 -3 -22 -8 -57 -11 -77 l-6 -38
40 0 41 0 44 93 c33 70 56 103 95 138 71 64 124 79 290 80 74 0 135 -1 138 -4
2 -2 4 -320 4 -706 0 -489 -3 -708 -11 -722 -15 -29 -64 -47 -152 -55 l-77 -7
0 -38 0 -39 381 0 380 0 -3 38 -3 37 -70 8 c-94 10 -132 24 -153 55 -16 24
-17 82 -17 731 l0 705 134 -1 c218 -3 287 -35 366 -170 25 -43 50 -92 56 -110
10 -31 14 -33 55 -33 39 0 45 3 40 18 -3 9 -12 96 -21 192 -19 216 -21 224
-42 215 -22 -8 -1415 -8 -1436 1 -10 3 -19 0 -22 -7z"/>
</g>
</svg>
