<svg width="44" height="44" viewBox="0 0 44 44" fill="none" xmlns="http://www.w3.org/2000/svg">
<path d="M39.1111 0H4.88889C2.2 0 0 2.2 0 4.88889V39.1111C0 40.4077 0.515078 41.6512 1.43192 42.5681C2.34877 43.4849 3.59227 44 4.88889 44H39.1111C41.8 44 44 41.8 44 39.1111V4.88889C44 2.2 41.8 0 39.1111 0ZM39.1111 39.1111H4.88889V31.7778H13.5911C15.2778 34.6867 18.4067 36.6667 22.0244 36.6667C25.6422 36.6667 28.7467 34.6867 30.4578 31.7778H39.1111V39.1111ZM39.1111 26.8889H26.9133C26.9133 29.5778 24.7133 31.7778 22.0244 31.7778C19.3356 31.7778 17.1356 29.5778 17.1356 26.8889H4.88889V4.88889H39.1111V26.8889Z" fill="white"/>
</svg>
