<svg width="58" height="58" viewBox="0 0 58 58" fill="none" xmlns="http://www.w3.org/2000/svg">
<path d="M28.9551 51.9676C35.0345 51.9676 40.8649 49.5526 45.1637 45.2538C49.4625 40.955 51.8775 35.1246 51.8775 29.0451C51.8775 22.9657 49.4625 17.1353 45.1637 12.8365C40.8649 8.53774 35.0345 6.1227 28.9551 6.1227C22.8757 6.1227 17.0452 8.53774 12.7464 12.8365C8.44765 17.1353 6.03261 22.9657 6.03261 29.0451C6.03261 35.1246 8.44765 40.955 12.7464 45.2538C17.0452 49.5526 22.8757 51.9676 28.9551 51.9676ZM28.9551 0.39209C32.7178 0.39209 36.4438 1.13322 39.9201 2.57317C43.3965 4.01313 46.5551 6.12369 49.2158 8.78438C51.8765 11.4451 53.9871 14.6037 55.427 18.0801C56.867 21.5564 57.6081 25.2824 57.6081 29.0451C57.6081 36.6444 54.5893 43.9324 49.2158 49.3059C43.8423 54.6794 36.5543 57.6982 28.9551 57.6982C13.1099 57.6982 0.302002 44.8043 0.302002 29.0451C0.302002 21.4459 3.3208 14.1579 8.69429 8.78438C14.0678 3.41089 21.3558 0.39209 28.9551 0.39209ZM30.3877 14.7186V29.7615L43.2816 37.4118L41.1326 40.9362L26.0898 31.9105V14.7186H30.3877Z" fill="white"/>
</svg>
