        <svg
          width="434"
          height="87"
          viewBox="0 0 434 87"
          fill="none"
          xmlns="http://www.w3.org/2000/svg">
          <path
            d="M16.2695 64.1023C16.1477 63.2345 16.1477 62.3088 16.2695 61.3252C19.3145 61.036 21.4765 60.7756 22.7554 60.5442C24.0343 60.2549 24.8261 59.6764 25.1306 58.8085C25.4351 57.9407 25.5873 56.4654 25.5873 54.3826V6.99872H19.01C15.7823 6.99872 13.2245 7.43264 11.3365 8.30048C9.5095 9.11046 8.01743 10.3544 6.86032 12.0322C5.7641 13.71 4.66789 15.8506 3.57167 18.4542C2.59726 18.5699 1.62285 18.5699 0.648438 18.4542C1.01384 15.6771 1.3488 13.0157 1.6533 10.4701C2.01871 7.92442 2.32321 5.46555 2.56681 3.09346C6.52536 3.32489 10.9102 3.46953 15.7214 3.52738C20.5325 3.52738 25.5264 3.52738 30.7028 3.52738C35.9402 3.52738 40.9645 3.52738 45.7757 3.52738C50.6478 3.46953 55.0326 3.32489 58.9303 3.09346C59.1739 5.40769 59.4175 7.86656 59.6611 10.4701C59.9047 13.0157 60.2092 15.6771 60.5746 18.4542C59.5393 18.5699 58.5344 18.5699 57.56 18.4542C56.4029 15.7928 55.2458 13.6232 54.0887 11.9454C52.9315 10.2676 51.4395 9.02367 49.6125 8.21369C47.8463 7.40371 45.3494 6.99872 42.1217 6.99872H35.6357V53.2544C35.6357 55.0479 35.6966 56.4654 35.8184 57.5068C35.9402 58.5482 36.2752 59.3003 36.8233 59.7631C37.4323 60.226 38.3763 60.5731 39.6552 60.8045C40.9341 60.9781 42.7002 61.1517 44.9535 61.3252C45.1362 62.2509 45.1362 63.1766 44.9535 64.1023C43.6746 64.1023 42.1217 64.0734 40.2946 64.0155C38.5285 64.0155 36.7624 64.0155 34.9963 64.0155C33.2301 63.9577 31.7381 63.9288 30.52 63.9288C29.3629 63.9288 27.9015 63.9577 26.1354 64.0155C24.4302 64.0155 22.6641 64.0155 20.8371 64.0155C19.0709 64.0734 17.5484 64.1023 16.2695 64.1023ZM58.6669 64.1023C58.4842 63.1766 58.4842 62.2799 58.6669 61.412C60.7375 61.2963 62.26 61.1227 63.2344 60.8913C64.2089 60.602 64.8483 60.0235 65.1528 59.1557C65.4573 58.2878 65.6096 56.8993 65.6096 54.99V35.5505C65.6096 33.2941 65.4878 31.6163 65.2442 30.5171C65.0615 29.4178 64.4829 28.6657 63.5085 28.2607C62.595 27.7979 61.0116 27.4218 58.7582 27.1325C58.5755 26.3225 58.5755 25.5704 58.7582 24.8761C61.1943 24.4133 63.5694 23.8926 65.8836 23.314C68.1979 22.6776 70.6339 21.8676 73.1917 20.8841L74.7447 21.4048V29.0417C79.0077 23.8926 83.3621 21.318 87.8079 21.318C89.9394 21.318 91.5229 21.8676 92.5582 22.9669C93.5935 24.0083 94.1111 25.1943 94.1111 26.525C94.1111 28.0871 93.563 29.3021 92.4668 30.1699C91.3706 30.9799 90.1221 31.3849 88.7214 31.3849C87.5643 31.3849 86.4072 31.0956 85.2501 30.5171C84.1539 29.9385 83.3317 29.0418 82.7836 27.8268C80.713 27.8268 78.8555 28.6078 77.2112 30.1699C75.6278 31.6742 74.836 33.4388 74.836 35.4637V54.1222C74.836 56.3786 74.9579 57.9985 75.2015 58.9821C75.506 59.9656 76.2368 60.602 77.3939 60.8913C78.6119 61.1227 80.5607 61.2963 83.2404 61.412C83.3622 62.222 83.3622 63.1188 83.2404 64.1023C81.1697 64.1023 79.0382 64.0734 76.8458 64.0155C74.6533 63.9577 72.4 63.9288 70.0858 63.9288C67.8325 63.9288 65.8227 63.9577 64.0566 64.0155C62.3514 64.0734 60.5548 64.1023 58.6669 64.1023ZM118.973 64.1023C117.268 64.1023 115.502 64.0734 113.675 64.0155C111.848 63.9577 109.868 63.9288 107.737 63.9288C105.788 63.9288 103.809 63.9577 101.799 64.0155C99.8503 64.0734 97.9624 64.1023 96.1353 64.1023C95.9526 63.1766 95.9526 62.2799 96.1353 61.412C98.206 61.2963 99.7285 61.1227 100.703 60.8913C101.677 60.602 102.317 60.0235 102.621 59.1557C102.926 58.2878 103.078 56.8993 103.078 54.99V35.5505C103.078 33.2941 102.987 31.6163 102.804 30.5171C102.621 29.4178 102.043 28.6657 101.068 28.2607C100.155 27.7979 98.5409 27.4218 96.2267 27.1325C96.044 26.3225 96.044 25.5704 96.2267 24.8761C98.9063 24.4133 101.464 23.8347 103.9 23.1405C106.336 22.4462 108.681 21.6941 110.934 20.8841L112.487 21.4048C112.426 23.1983 112.365 24.8761 112.304 26.4382C112.304 28.0003 112.304 29.4757 112.304 30.8642V54.1222C112.304 56.3786 112.426 57.9985 112.67 58.9821C112.974 59.9656 113.583 60.602 114.497 60.8913C115.471 61.1227 116.963 61.2963 118.973 61.412C119.156 62.2799 119.156 63.1766 118.973 64.1023ZM100.703 6.13089C100.703 4.45307 101.312 3.03561 102.53 1.87849C103.809 0.721378 105.331 0.142822 107.097 0.142822C108.803 0.142822 110.264 0.721378 111.482 1.87849C112.761 3.03561 113.401 4.42415 113.401 6.04411C113.401 7.54835 112.792 8.93689 111.574 10.2097C110.356 11.4247 108.803 12.0322 106.915 12.0322C105.21 12.0322 103.748 11.4536 102.53 10.2965C101.312 9.13939 100.703 7.75085 100.703 6.13089ZM178.794 64.1023C178.612 63.1766 178.612 62.2799 178.794 61.412C180.621 61.2963 181.992 61.1227 182.905 60.8913C183.819 60.602 184.428 60.0235 184.732 59.1557C185.098 58.2878 185.28 56.8993 185.28 54.99V37.4598C185.28 34.0463 184.732 31.4717 183.636 29.736C182.601 28.0004 180.439 27.1325 177.15 27.1325C173.07 27.1325 169.598 28.5789 166.736 31.4717C166.858 32.3974 166.919 33.3809 166.919 34.4223V54.1222C166.919 56.3786 167.041 57.9985 167.284 58.9821C167.589 59.9656 168.198 60.602 169.111 60.8913C170.025 61.1227 171.425 61.2963 173.313 61.412C173.435 62.2799 173.435 63.1766 173.313 64.1023C171.608 64.1023 169.903 64.0734 168.198 64.0155C166.493 63.9577 164.483 63.9288 162.169 63.9288C159.915 63.9288 157.936 63.9577 156.231 64.0155C154.586 64.0734 153.003 64.1023 151.48 64.1023C151.298 63.1766 151.298 62.2799 151.48 61.412C153.247 61.2963 154.556 61.1227 155.409 60.8913C156.322 60.602 156.931 60.0235 157.236 59.1557C157.54 58.2878 157.692 56.8993 157.692 54.99V37.4598C157.692 34.0463 157.175 31.4717 156.139 29.736C155.104 28.0004 152.912 27.1325 149.562 27.1325C145.725 27.1325 142.376 28.6078 139.513 31.5585V54.1222C139.513 56.3786 139.635 57.9985 139.879 58.9821C140.183 59.9656 140.792 60.602 141.706 60.8913C142.68 61.1227 144.142 61.2963 146.091 61.412C146.213 62.2799 146.213 63.1766 146.091 64.1023C144.386 64.1023 142.619 64.0734 140.792 64.0155C139.026 63.9577 136.986 63.9288 134.672 63.9288C132.479 63.9288 130.5 63.9577 128.734 64.0155C126.968 64.0734 125.171 64.1023 123.344 64.1023C123.162 63.1766 123.162 62.2799 123.344 61.412C125.415 61.2963 126.937 61.1227 127.912 60.8913C128.886 60.602 129.526 60.0235 129.83 59.1557C130.135 58.2878 130.287 56.8993 130.287 54.99V35.5505C130.287 33.2941 130.165 31.6163 129.922 30.5171C129.739 29.4178 129.16 28.6657 128.186 28.2607C127.272 27.7979 125.689 27.4218 123.436 27.1325C123.253 26.3225 123.253 25.5704 123.436 24.8761C125.993 24.4133 128.46 23.8637 130.835 23.2273C133.21 22.5908 135.555 21.8098 137.869 20.8841L139.422 21.4048V27.8268C144.355 23.4876 149.501 21.318 154.86 21.318C158.21 21.318 160.737 21.9834 162.443 23.314C164.148 24.6447 165.335 26.2936 166.005 28.2607C168.624 25.8886 171.304 24.1529 174.044 23.0537C176.785 21.8966 179.556 21.318 182.357 21.318C186.377 21.318 189.391 22.4462 191.401 24.7026C193.472 26.9589 194.507 30.1989 194.507 34.4223V54.1222C194.507 56.3786 194.629 57.9985 194.872 58.9821C195.116 59.9656 195.694 60.602 196.608 60.8913C197.521 61.1227 198.922 61.2963 200.81 61.412C200.993 62.2799 200.993 63.1766 200.81 64.1023C199.105 64.1023 197.4 64.0734 195.694 64.0155C193.989 63.9577 192.01 63.9288 189.757 63.9288C187.442 63.9288 185.402 63.9577 183.636 64.0155C181.931 64.0734 180.317 64.1023 178.794 64.1023ZM209.441 50.3037C210.355 54.1222 211.816 57.0439 213.826 59.0689C215.836 61.036 218.424 62.0195 221.591 62.0195C223.966 62.0195 225.976 61.4988 227.62 60.4574C229.264 59.3582 230.087 57.6514 230.087 55.3372C230.087 53.6015 229.63 52.213 228.716 51.1716C227.864 50.1302 226.646 49.2623 225.062 48.5681C223.54 47.8159 221.804 47.0638 219.855 46.3117C217.602 45.4439 215.47 44.5182 213.461 43.5346C211.512 42.4932 209.898 41.2204 208.619 39.7161C207.401 38.154 206.792 36.158 206.792 33.7281C206.792 30.951 207.553 28.6657 209.076 26.8722C210.659 25.0208 212.669 23.6322 215.105 22.7066C217.602 21.7809 220.251 21.318 223.053 21.318C224.453 21.318 225.854 21.4048 227.255 21.5784C228.655 21.7519 229.417 21.8387 229.539 21.8387C230.757 22.0123 231.883 22.128 232.919 22.1859C233.954 22.1859 234.502 22.1859 234.563 22.1859C234.624 22.1859 234.746 22.1859 234.928 22.1859C235.172 22.1859 235.476 22.1569 235.842 22.0991C235.842 23.9504 235.872 25.8308 235.933 27.74C235.994 29.6492 236.116 31.6742 236.299 33.8149C236.238 33.8149 236.116 33.8149 235.933 33.8149C235.385 33.8727 234.867 33.9306 234.38 33.9884C233.954 33.9884 233.528 33.9595 233.101 33.9016C232.31 30.6617 231.122 28.3186 229.539 26.8722C228.016 25.3679 225.854 24.6158 223.053 24.6158C220.556 24.6158 218.546 25.1365 217.023 26.1779C215.562 27.2193 214.831 28.6657 214.831 30.5171C214.831 32.0213 215.318 33.2652 216.293 34.2488C217.267 35.1745 218.455 35.9555 219.855 36.5919C221.256 37.2283 222.596 37.778 223.875 38.2408C226.25 39.1086 228.503 40.0922 230.635 41.1915C232.827 42.2329 234.593 43.5925 235.933 45.2703C237.334 46.9481 238.034 49.2045 238.034 52.0394C238.034 55.0479 237.212 57.5357 235.568 59.5028C233.984 61.412 231.944 62.8295 229.447 63.7552C226.95 64.623 224.332 65.0569 221.591 65.0569C220.008 65.0569 218.424 64.9412 216.841 64.7098C215.318 64.4784 214.496 64.3627 214.374 64.3627C214.252 64.3627 213.735 64.3048 212.821 64.1891C211.969 64.0734 210.994 63.9577 209.898 63.842C208.863 63.7263 207.949 63.6684 207.158 63.6684C207.158 61.8749 207.066 59.8788 206.883 57.6803C206.762 55.4818 206.609 53.0519 206.427 50.3905C206.548 50.3905 206.701 50.3905 206.883 50.3905C207.432 50.3327 207.888 50.3037 208.254 50.3037C208.68 50.2459 209.076 50.2459 209.441 50.3037ZM250.077 86.1453C248.433 86.1453 247.154 85.6825 246.241 84.7568C245.388 83.889 244.962 82.8476 244.962 81.6326C244.962 80.0126 245.875 78.4216 247.702 76.8595C249.529 75.3553 252.513 74.6031 256.655 74.6031C257.446 73.2724 258.208 71.8261 258.938 70.264C259.73 68.7597 260.644 66.8794 261.679 64.623C261.009 63.0031 260.156 60.9203 259.121 58.3746C258.086 55.829 256.898 53.0229 255.558 49.9566C254.279 46.8324 252.97 43.6214 251.63 40.3236C250.29 36.968 248.981 33.7281 247.702 30.6039C246.971 28.7525 246.149 27.4797 245.236 26.7854C244.383 26.0911 242.708 25.6283 240.211 25.3968C240.029 24.5869 240.029 23.6901 240.211 22.7066C241.978 22.7066 243.774 22.7355 245.601 22.7933C247.428 22.8512 249.316 22.8801 251.265 22.8801C253.031 22.8801 254.949 22.8512 257.02 22.7933C259.091 22.7355 260.857 22.7066 262.318 22.7066C262.44 23.5744 262.44 24.4711 262.318 25.3968C260.248 25.5126 258.786 25.715 257.934 26.0043C257.142 26.2936 256.746 26.8722 256.746 27.74C256.746 28.55 257.05 29.7939 257.659 31.4717C259.243 35.5794 260.765 39.369 262.227 42.8403C263.75 46.3117 265.272 49.8698 266.795 53.5147C268.743 49.2913 270.449 45.5017 271.91 42.1461C273.433 38.7904 274.955 35.2902 276.478 31.6453C277.148 29.9674 277.483 28.7235 277.483 27.9136C277.483 27.1036 277.026 26.525 276.112 26.1779C275.199 25.8308 273.585 25.5704 271.271 25.3968C271.088 24.4711 271.088 23.5744 271.271 22.7066C272.793 22.7066 274.346 22.7355 275.93 22.7933C277.574 22.8512 279.31 22.8801 281.137 22.8801C282.355 22.8801 283.664 22.8512 285.065 22.7933C286.526 22.7355 287.836 22.7066 288.993 22.7066C289.176 23.5744 289.176 24.4711 288.993 25.3968C286.435 25.5704 284.699 26.12 283.786 27.0457C282.872 27.9136 282.02 29.2442 281.228 31.0378L265.607 65.6644C265.303 66.3587 264.754 67.5158 263.963 69.1358C263.171 70.8136 262.318 72.5203 261.405 74.256C260.552 76.0495 259.821 77.5248 259.212 78.682C257.69 81.5169 256.198 83.4551 254.736 84.4965C253.275 85.5957 251.722 86.1453 250.077 86.1453Z"
            fill="black"
          />
          <path
            d="M305.636 64V17.4545H321.909C325.152 17.4545 327.826 18.0152 329.932 19.1364C332.038 20.2424 333.606 21.7348 334.636 23.6136C335.667 25.4773 336.182 27.5455 336.182 29.8182C336.182 31.8182 335.826 33.4697 335.114 34.7727C334.417 36.0758 333.492 37.1061 332.341 37.8636C331.205 38.6212 329.97 39.1818 328.636 39.5455V40C330.061 40.0909 331.492 40.5909 332.932 41.5C334.371 42.4091 335.576 43.7121 336.545 45.4091C337.515 47.1061 338 49.1818 338 51.6364C338 53.9697 337.47 56.0682 336.409 57.9318C335.348 59.7955 333.674 61.2727 331.386 62.3636C329.098 63.4545 326.121 64 322.455 64H305.636ZM311.273 59H322.455C326.136 59 328.75 58.2879 330.295 56.8636C331.856 55.4242 332.636 53.6818 332.636 51.6364C332.636 50.0606 332.235 48.6061 331.432 47.2727C330.629 45.9242 329.485 44.8485 328 44.0455C326.515 43.2273 324.758 42.8182 322.727 42.8182H311.273V59ZM311.273 37.9091H321.727C323.424 37.9091 324.955 37.5758 326.318 36.9091C327.697 36.2424 328.788 35.303 329.591 34.0909C330.409 32.8788 330.818 31.4545 330.818 29.8182C330.818 27.7727 330.106 26.0379 328.682 24.6136C327.258 23.1742 325 22.4545 321.909 22.4545H311.273V37.9091ZM351.898 17.4545V64H346.534V17.4545H351.898ZM375.903 64.7273C372.752 64.7273 369.987 63.9773 367.608 62.4773C365.244 60.9773 363.396 58.8788 362.062 56.1818C360.744 53.4848 360.085 50.3333 360.085 46.7273C360.085 43.0909 360.744 39.9167 362.062 37.2045C363.396 34.4924 365.244 32.3864 367.608 30.8864C369.987 29.3864 372.752 28.6364 375.903 28.6364C379.055 28.6364 381.813 29.3864 384.176 30.8864C386.555 32.3864 388.403 34.4924 389.722 37.2045C391.055 39.9167 391.722 43.0909 391.722 46.7273C391.722 50.3333 391.055 53.4848 389.722 56.1818C388.403 58.8788 386.555 60.9773 384.176 62.4773C381.813 63.9773 379.055 64.7273 375.903 64.7273ZM375.903 59.9091C378.297 59.9091 380.267 59.2955 381.812 58.0682C383.358 56.8409 384.502 55.2273 385.244 53.2273C385.987 51.2273 386.358 49.0606 386.358 46.7273C386.358 44.3939 385.987 42.2197 385.244 40.2045C384.502 38.1894 383.358 36.5606 381.812 35.3182C380.267 34.0758 378.297 33.4545 375.903 33.4545C373.509 33.4545 371.54 34.0758 369.994 35.3182C368.449 36.5606 367.305 38.1894 366.562 40.2045C365.82 42.2197 365.449 44.3939 365.449 46.7273C365.449 49.0606 365.82 51.2273 366.562 53.2273C367.305 55.2273 368.449 56.8409 369.994 58.0682C371.54 59.2955 373.509 59.9091 375.903 59.9091ZM414 77.8182C411.409 77.8182 409.182 77.4848 407.318 76.8182C405.455 76.1667 403.902 75.303 402.659 74.2273C401.432 73.1667 400.455 72.0303 399.727 70.8182L404 67.8182C404.485 68.4545 405.098 69.1818 405.841 70C406.583 70.8333 407.598 71.553 408.886 72.1591C410.189 72.7803 411.894 73.0909 414 73.0909C416.818 73.0909 419.144 72.4091 420.977 71.0455C422.811 69.6818 423.727 67.5455 423.727 64.6364V57.5455H423.273C422.879 58.1818 422.318 58.9697 421.591 59.9091C420.879 60.8333 419.848 61.6591 418.5 62.3864C417.167 63.0985 415.364 63.4545 413.091 63.4545C410.273 63.4545 407.742 62.7879 405.5 61.4545C403.273 60.1212 401.508 58.1818 400.205 55.6364C398.917 53.0909 398.273 50 398.273 46.3636C398.273 42.7879 398.902 39.6742 400.159 37.0227C401.417 34.3561 403.167 32.2955 405.409 30.8409C407.652 29.3712 410.242 28.6364 413.182 28.6364C415.455 28.6364 417.258 29.0152 418.591 29.7727C419.939 30.5152 420.97 31.3636 421.682 32.3182C422.409 33.2576 422.97 34.0303 423.364 34.6364H423.909V29.0909H429.091V65C429.091 68 428.409 70.4394 427.045 72.3182C425.697 74.2121 423.879 75.5985 421.591 76.4773C419.318 77.3712 416.788 77.8182 414 77.8182ZM413.818 58.6364C415.97 58.6364 417.788 58.1439 419.273 57.1591C420.758 56.1742 421.886 54.7576 422.659 52.9091C423.432 51.0606 423.818 48.8485 423.818 46.2727C423.818 43.7576 423.439 41.5379 422.682 39.6136C421.924 37.6894 420.803 36.1818 419.318 35.0909C417.833 34 416 33.4545 413.818 33.4545C411.545 33.4545 409.652 34.0303 408.136 35.1818C406.636 36.3333 405.508 37.8788 404.75 39.8182C404.008 41.7576 403.636 43.9091 403.636 46.2727C403.636 48.697 404.015 50.8409 404.773 52.7045C405.545 54.553 406.682 56.0076 408.182 57.0682C409.697 58.1136 411.576 58.6364 413.818 58.6364Z"
            fill="black"
          />
        </svg>