
        <svg
          width="289"
          height="87"
          viewBox="0 0 289 87"
          fill="none"
          xmlns="http://www.w3.org/2000/svg">
          <path
            d="M15.6211 63.9595C15.4993 63.0917 15.4993 62.166 15.6211 61.1824C18.6661 60.8931 20.8281 60.6328 22.107 60.4014C23.3859 60.1121 24.1776 59.5335 24.4821 58.6657C24.7866 57.7979 24.9389 56.3225 24.9389 54.2397V6.8559H18.3616C15.1339 6.8559 12.576 7.28982 10.6881 8.15765C8.86106 8.96764 7.369 10.2115 6.21188 11.8893C5.11567 13.5672 4.01945 15.7078 2.92324 18.3113C1.94882 18.427 0.974413 18.427 0 18.3113C0.365405 15.5343 0.700359 12.8729 1.00486 10.3272C1.37027 7.78159 1.67477 5.32273 1.91837 2.95064C5.87693 3.18206 10.2618 3.3267 15.0729 3.38456C19.8841 3.38456 24.878 3.38456 30.0543 3.38456C35.2918 3.38456 40.3161 3.38456 45.1273 3.38456C49.9993 3.3267 54.3842 3.18206 58.2818 2.95064C58.5254 5.26487 58.769 7.72374 59.0126 10.3272C59.2562 12.8729 59.5607 15.5343 59.9262 18.3113C58.8908 18.427 57.886 18.427 56.9116 18.3113C55.7545 15.65 54.5973 13.4804 53.4402 11.8026C52.2831 10.1248 50.791 8.88085 48.964 8.07087C47.1979 7.26089 44.701 6.8559 41.4732 6.8559H34.9873V53.1115C34.9873 54.9051 35.0482 56.3225 35.17 57.3639C35.2918 58.4053 35.6267 59.1575 36.1748 59.6203C36.7839 60.0832 37.7278 60.4303 39.0067 60.6617C40.2856 60.8353 42.0518 61.0089 44.3051 61.1824C44.4878 62.1081 44.4878 63.0338 44.3051 63.9595C43.0262 63.9595 41.4732 63.9306 39.6462 63.8727C37.8801 63.8727 36.1139 63.8727 34.3478 63.8727C32.5817 63.8149 31.0896 63.7859 29.8716 63.7859C28.7145 63.7859 27.2531 63.8149 25.487 63.8727C23.7818 63.8727 22.0156 63.8727 20.1886 63.8727C18.4225 63.9306 16.9 63.9595 15.6211 63.9595ZM58.0184 63.9595C57.8357 63.0338 57.8357 62.137 58.0184 61.2692C60.0891 61.1535 61.6116 60.9799 62.586 60.7485C63.5604 60.4592 64.1999 59.8807 64.5044 59.0128C64.8089 58.145 64.9611 56.7565 64.9611 54.8472V35.4077C64.9611 33.1513 64.8393 31.4735 64.5957 30.3743C64.413 29.275 63.8345 28.5229 62.8601 28.1179C61.9465 27.655 60.3631 27.279 58.1098 26.9897C57.9271 26.1797 57.9271 25.4276 58.1098 24.7333C60.5458 24.2705 62.921 23.7498 65.2352 23.1712C67.5494 22.5348 69.9854 21.7248 72.5433 20.7413L74.0963 21.262V28.8989C78.3593 23.7498 82.7137 21.1752 87.1595 21.1752C89.291 21.1752 90.8744 21.7248 91.9097 22.8241C92.945 23.8655 93.4627 25.0515 93.4627 26.3822C93.4627 27.9443 92.9146 29.1593 91.8184 30.0271C90.7222 30.8371 89.4737 31.2421 88.073 31.2421C86.9159 31.2421 85.7588 30.9528 84.6016 30.3743C83.5054 29.7957 82.6833 28.8989 82.1352 27.684C80.0645 27.684 78.2071 28.465 76.5627 30.0271C74.9793 31.5314 74.1876 33.296 74.1876 35.3209V53.9794C74.1876 56.2358 74.3094 57.8557 74.553 58.8393C74.8575 59.8228 75.5883 60.4592 76.7454 60.7485C77.9634 60.9799 79.9123 61.1535 82.5919 61.2692C82.7137 62.0792 82.7137 62.976 82.5919 63.9595C80.5213 63.9595 78.3898 63.9306 76.1973 63.8727C74.0049 63.8149 71.7516 63.7859 69.4373 63.7859C67.184 63.7859 65.1743 63.8149 63.4082 63.8727C61.7029 63.9306 59.9064 63.9595 58.0184 63.9595ZM118.325 63.9595C116.619 63.9595 114.853 63.9306 113.026 63.8727C111.199 63.8149 109.22 63.7859 107.089 63.7859C105.14 63.7859 103.16 63.8149 101.151 63.8727C99.2018 63.9306 97.3139 63.9595 95.4869 63.9595C95.3042 63.0338 95.3042 62.137 95.4869 61.2692C97.5575 61.1535 99.08 60.9799 100.054 60.7485C101.029 60.4592 101.668 59.8807 101.973 59.0128C102.277 58.145 102.43 56.7565 102.43 54.8472V35.4077C102.43 33.1513 102.338 31.4735 102.156 30.3743C101.973 29.275 101.394 28.5229 100.42 28.1179C99.5064 27.655 97.8925 27.279 95.5783 26.9897C95.3956 26.1797 95.3956 25.4276 95.5783 24.7333C98.2579 24.2705 100.816 23.6919 103.252 22.9976C105.688 22.3034 108.032 21.5513 110.286 20.7413L111.839 21.262C111.778 23.0555 111.717 24.7333 111.656 26.2954C111.656 27.8575 111.656 29.3329 111.656 30.7214V53.9794C111.656 56.2358 111.778 57.8557 112.021 58.8393C112.326 59.8228 112.935 60.4592 113.848 60.7485C114.823 60.9799 116.315 61.1535 118.325 61.2692C118.507 62.137 118.507 63.0338 118.325 63.9595ZM100.054 5.98806C100.054 4.31025 100.663 2.89278 101.881 1.73567C103.16 0.578556 104.683 0 106.449 0C108.154 0 109.616 0.578556 110.834 1.73567C112.113 2.89278 112.752 4.28132 112.752 5.90128C112.752 7.40553 112.143 8.79407 110.925 10.0669C109.707 11.2819 108.154 11.8893 106.266 11.8893C104.561 11.8893 103.099 11.3108 101.881 10.1537C100.663 8.99656 100.054 7.60802 100.054 5.98806ZM178.146 63.9595C177.963 63.0338 177.963 62.137 178.146 61.2692C179.973 61.1535 181.343 60.9799 182.257 60.7485C183.17 60.4592 183.779 59.8807 184.084 59.0128C184.449 58.145 184.632 56.7565 184.632 54.8472V37.3169C184.632 33.9035 184.084 31.3289 182.988 29.5932C181.952 27.8575 179.79 26.9897 176.502 26.9897C172.421 26.9897 168.95 28.4361 166.088 31.3289C166.209 32.2546 166.27 33.2381 166.27 34.2795V53.9794C166.27 56.2358 166.392 57.8557 166.636 58.8393C166.94 59.8228 167.549 60.4592 168.463 60.7485C169.376 60.9799 170.777 61.1535 172.665 61.2692C172.787 62.137 172.787 63.0338 172.665 63.9595C170.96 63.9595 169.255 63.9306 167.549 63.8727C165.844 63.8149 163.834 63.7859 161.52 63.7859C159.267 63.7859 157.288 63.8149 155.582 63.8727C153.938 63.9306 152.355 63.9595 150.832 63.9595C150.649 63.0338 150.649 62.137 150.832 61.2692C152.598 61.1535 153.908 60.9799 154.76 60.7485C155.674 60.4592 156.283 59.8807 156.587 59.0128C156.892 58.145 157.044 56.7565 157.044 54.8472V37.3169C157.044 33.9035 156.526 31.3289 155.491 29.5932C154.456 27.8575 152.263 26.9897 148.914 26.9897C145.077 26.9897 141.727 28.465 138.865 31.4157V53.9794C138.865 56.2358 138.987 57.8557 139.23 58.8393C139.535 59.8228 140.144 60.4592 141.057 60.7485C142.032 60.9799 143.493 61.1535 145.442 61.2692C145.564 62.137 145.564 63.0338 145.442 63.9595C143.737 63.9595 141.971 63.9306 140.144 63.8727C138.378 63.8149 136.338 63.7859 134.023 63.7859C131.831 63.7859 129.852 63.8149 128.086 63.8727C126.319 63.9306 124.523 63.9595 122.696 63.9595C122.513 63.0338 122.513 62.137 122.696 61.2692C124.766 61.1535 126.289 60.9799 127.263 60.7485C128.238 60.4592 128.877 59.8807 129.182 59.0128C129.486 58.145 129.639 56.7565 129.639 54.8472V35.4077C129.639 33.1513 129.517 31.4735 129.273 30.3743C129.09 29.275 128.512 28.5229 127.537 28.1179C126.624 27.655 125.041 27.279 122.787 26.9897C122.605 26.1797 122.605 25.4276 122.787 24.7333C125.345 24.2705 127.812 23.7208 130.187 23.0844C132.562 22.448 134.906 21.667 137.221 20.7413L138.774 21.262V27.684C143.707 23.3448 148.853 21.1752 154.212 21.1752C157.562 21.1752 160.089 21.8405 161.794 23.1712C163.499 24.5019 164.687 26.1508 165.357 28.1179C167.976 25.7458 170.655 24.0101 173.396 22.9109C176.136 21.7537 178.907 21.1752 181.709 21.1752C185.728 21.1752 188.743 22.3034 190.752 24.5598C192.823 26.8161 193.858 30.056 193.858 34.2795V53.9794C193.858 56.2358 193.98 57.8557 194.224 58.8393C194.467 59.8228 195.046 60.4592 195.96 60.7485C196.873 60.9799 198.274 61.1535 200.162 61.2692C200.344 62.137 200.344 63.0338 200.162 63.9595C198.456 63.9595 196.751 63.9306 195.046 63.8727C193.341 63.8149 191.362 63.7859 189.108 63.7859C186.794 63.7859 184.754 63.8149 182.988 63.8727C181.282 63.9306 179.669 63.9595 178.146 63.9595ZM208.793 50.1609C209.706 53.9794 211.168 56.9011 213.178 58.926C215.187 60.8931 217.776 61.8767 220.943 61.8767C223.318 61.8767 225.327 61.356 226.972 60.3146C228.616 59.2153 229.438 57.5086 229.438 55.1944C229.438 53.4587 228.981 52.0701 228.068 51.0287C227.215 49.9873 225.997 49.1195 224.414 48.4252C222.891 47.6731 221.156 46.921 219.207 46.1689C216.954 45.301 214.822 44.3753 212.812 43.3918C210.863 42.3504 209.25 41.0776 207.971 39.5733C206.753 38.0112 206.144 36.0152 206.144 33.5852C206.144 30.8082 206.905 28.5229 208.427 26.7293C210.011 24.878 212.021 23.4894 214.457 22.5637C216.954 21.638 219.603 21.1752 222.404 21.1752C223.805 21.1752 225.206 21.262 226.606 21.4355C228.007 21.6091 228.768 21.6959 228.89 21.6959C230.108 21.8695 231.235 21.9852 232.27 22.043C233.305 22.043 233.854 22.043 233.914 22.043C233.975 22.043 234.097 22.043 234.28 22.043C234.523 22.043 234.828 22.0141 235.193 21.9562C235.193 23.8076 235.224 25.6879 235.285 27.5972C235.346 29.5064 235.467 31.5314 235.65 33.672C235.589 33.672 235.467 33.672 235.285 33.672C234.737 33.7299 234.219 33.7877 233.732 33.8456C233.305 33.8456 232.879 33.8167 232.453 33.7588C231.661 30.5189 230.474 28.1757 228.89 26.7293C227.368 25.2251 225.206 24.473 222.404 24.473C219.907 24.473 217.897 24.9937 216.375 26.0351C214.913 27.0765 214.183 28.5229 214.183 30.3743C214.183 31.8785 214.67 33.1224 215.644 34.1059C216.619 35.0316 217.806 35.8127 219.207 36.4491C220.608 37.0855 221.947 37.6351 223.226 38.098C225.601 38.9658 227.855 39.9494 229.986 41.0486C232.179 42.09 233.945 43.4496 235.285 45.1275C236.685 46.8053 237.386 49.0616 237.386 51.8966C237.386 54.9051 236.564 57.3929 234.919 59.36C233.336 61.2692 231.296 62.6867 228.799 63.6124C226.302 64.4802 223.683 64.9141 220.943 64.9141C219.359 64.9141 217.776 64.7984 216.192 64.567C214.67 64.3356 213.848 64.2198 213.726 64.2198C213.604 64.2198 213.086 64.162 212.173 64.0463C211.32 63.9306 210.346 63.8149 209.25 63.6991C208.214 63.5834 207.301 63.5256 206.509 63.5256C206.509 61.732 206.418 59.736 206.235 57.5375C206.113 55.339 205.961 52.9091 205.778 50.2477C205.9 50.2477 206.052 50.2477 206.235 50.2477C206.783 50.1898 207.24 50.1609 207.605 50.1609C208.032 50.1031 208.427 50.1031 208.793 50.1609ZM249.429 86.0025C247.785 86.0025 246.506 85.5397 245.592 84.614C244.74 83.7462 244.313 82.7048 244.313 81.4898C244.313 79.8698 245.227 78.2788 247.054 76.7167C248.881 75.2124 251.865 74.4603 256.006 74.4603C256.798 73.1296 257.559 71.6832 258.29 70.1211C259.082 68.6169 259.995 66.7366 261.03 64.4802C260.361 62.8602 259.508 60.7774 258.473 58.2318C257.437 55.6861 256.25 52.8801 254.91 49.8138C253.631 46.6896 252.322 43.4786 250.982 40.1808C249.642 36.8252 248.333 33.5852 247.054 30.461C246.323 28.6097 245.501 27.3368 244.587 26.6426C243.735 25.9483 242.06 25.4854 239.563 25.254C239.38 24.444 239.38 23.5473 239.563 22.5637C241.329 22.5637 243.126 22.5927 244.953 22.6505C246.78 22.7084 248.668 22.7373 250.616 22.7373C252.383 22.7373 254.301 22.7084 256.372 22.6505C258.442 22.5927 260.208 22.5637 261.67 22.5637C261.792 23.4316 261.792 24.3283 261.67 25.254C259.599 25.3697 258.138 25.5722 257.285 25.8615C256.493 26.1508 256.098 26.7293 256.098 27.5972C256.098 28.4072 256.402 29.6511 257.011 31.3289C258.594 35.4366 260.117 39.2262 261.579 42.6975C263.101 46.1689 264.624 49.727 266.146 53.3719C268.095 49.1484 269.8 45.3589 271.262 42.0033C272.784 38.6476 274.307 35.1474 275.829 31.5024C276.499 29.8246 276.834 28.5807 276.834 27.7707C276.834 26.9608 276.377 26.3822 275.464 26.0351C274.55 25.6879 272.937 25.4276 270.622 25.254C270.44 24.3283 270.44 23.4316 270.622 22.5637C272.145 22.5637 273.698 22.5927 275.281 22.6505C276.926 22.7084 278.661 22.7373 280.488 22.7373C281.706 22.7373 283.016 22.7084 284.416 22.6505C285.878 22.5927 287.187 22.5637 288.345 22.5637C288.527 23.4316 288.527 24.3283 288.345 25.254C285.787 25.4276 284.051 25.9772 283.137 26.9029C282.224 27.7707 281.371 29.1014 280.58 30.895L264.959 65.5216C264.654 66.2159 264.106 67.373 263.314 68.9929C262.523 70.6708 261.67 72.3775 260.756 74.1132C259.904 75.9067 259.173 77.382 258.564 78.5391C257.041 81.3741 255.549 83.3122 254.088 84.3536C252.626 85.4529 251.073 86.0025 249.429 86.0025Z"
            fill="black"
          />
        </svg>