<svg width="91" height="118" viewBox="0 0 91 118" fill="none" xmlns="http://www.w3.org/2000/svg">
<path d="M8.37658 43.8909H11.1556V35.5085C11.1556 25.7722 14.9843 16.9097 21.1541 10.4748C27.348 4.01112 35.9013 0 45.3159 0C54.7315 0 63.2838 4.01112 69.4796 10.4738C75.6485 16.9087 79.4771 25.7722 79.4771 35.5076V43.8899H82.2562C84.5619 43.8899 86.6572 44.831 88.1735 46.3482C89.6898 47.8655 90.6318 49.9599 90.6318 52.2655V109.623C90.6318 111.929 89.6908 114.024 88.1735 115.541C86.6562 117.057 84.5619 117.999 82.2562 117.999H8.37658C6.06997 117.999 3.97559 117.058 2.45833 115.541C0.941081 114.023 0 111.931 0 109.624V52.2665C0 49.9608 0.942041 47.8655 2.45833 46.3492C3.97559 44.8329 6.06997 43.8909 8.37658 43.8909ZM42.2526 83.834L38.229 94.377H52.4047L48.675 83.689C51.0421 82.4694 52.6602 80.0015 52.6602 77.1561C52.6602 73.1008 49.3712 69.8128 45.3169 69.8128C41.2616 69.8128 37.9726 73.1018 37.9726 77.1561C37.9716 80.1186 39.7261 82.672 42.2526 83.834ZM17.048 43.8909H73.5848V35.5085C73.5848 27.3355 70.3909 19.9173 65.2438 14.5493C60.1235 9.20819 53.0702 5.89328 45.3159 5.89328C37.5616 5.89328 30.5083 9.20819 25.3881 14.5483C20.2419 19.9163 17.047 27.3346 17.047 35.5076L17.048 43.8909ZM82.2562 49.7841H8.37658C7.69669 49.7841 7.07731 50.0645 6.62598 50.5159C6.17464 50.9672 5.89424 51.5875 5.89424 52.2665V109.624C5.89424 110.303 6.17464 110.924 6.62598 111.374C7.07731 111.826 7.69766 112.106 8.37658 112.106H82.2572C82.937 112.106 83.5574 111.826 84.0078 111.374C84.4591 110.923 84.7395 110.303 84.7395 109.624V52.2665C84.7395 51.5875 84.4591 50.9672 84.0078 50.5159C83.5555 50.0645 82.9361 49.7841 82.2562 49.7841Z" fill="white"/>
</svg>
